HIERARCHY
ROOT Hips
{
	OFFSET 0.000000 0.000000 0.000000
	CHANNELS 6 Xposition Yposition Zposition Xrotation Yrotation Zrotation
	JOINT LeftUpLeg_virtual
	{
		OFFSET 0.000000 0.000000 0.000000
		CHANNELS 3 Xrotation Yrotation Zrotation
		JOINT LeftUpLeg
		{
			OFFSET 11.394100 -6.187798 -0.413800
			CHANNELS 3 Xrotation Yrotation Zrotation
			JOINT LeftLeg
			{
				OFFSET 0.430247 -32.302673 3.732800
				CHANNELS 3 Xrotation Yrotation Zrotation
				JOINT LeftFoot
				{
					OFFSET -0.430247 -48.264931 -6.423300
					CHANNELS 3 Xrotation Yrotation Zrotation
					JOINT LeftToeBase
					{
						OFFSET 4.230900 -16.068199 23.438400
						CHANNELS 3 Xrotation Yrotation Zrotation
						JOINT LeftToe_End
						{
							OFFSET 4.510700 0.695400 19.974600
							CHANNELS 3 Xrotation Yrotation Zrotation
							End Site
							{
								OFFSET 0 0 0
							}
						}
					}
				}
			}
		}
	}
	JOINT RightUpLeg_virtual
	{
		OFFSET 0.000000 0.000000 0.000000
		CHANNELS 3 Xrotation Yrotation Zrotation
		JOINT RightUpLeg
		{
			OFFSET -11.333700 -6.187798 -0.413800
			CHANNELS 3 Xrotation Yrotation Zrotation
			JOINT RightLeg
			{
				OFFSET -0.430392 -32.302628 3.733000
				CHANNELS 3 Xrotation Yrotation Zrotation
				JOINT RightFoot
				{
					OFFSET 0.430392 -48.264973 -6.423500
					CHANNELS 3 Xrotation Yrotation Zrotation
					JOINT RightToeBase
					{
						OFFSET -4.230900 -16.068199 23.438400
						CHANNELS 3 Xrotation Yrotation Zrotation
						JOINT RightToe_End
						{
							OFFSET -4.510700 0.695400 19.974600
							CHANNELS 3 Xrotation Yrotation Zrotation
							End Site
							{
								OFFSET 0 0 0
							}
						}
					}
				}
			}
		}
	}
	JOINT Spine_virtual
	{
		OFFSET 0.000000 0.000000 0.000000
		CHANNELS 3 Xrotation Yrotation Zrotation
		JOINT Spine
		{
			OFFSET -0.002400 12.777504 0.315300
			CHANNELS 3 Xrotation Yrotation Zrotation
			JOINT Spine1
			{
				OFFSET -0.002067 5.816869 0.032633
				CHANNELS 3 Xrotation Yrotation Zrotation
				JOINT Spine1_split
				{
					OFFSET -0.002067 5.816869 0.032633
					CHANNELS 3 Xrotation Yrotation Zrotation
					JOINT Spine2
					{
						OFFSET -0.002067 5.816869 0.032633
						CHANNELS 3 Xrotation Yrotation Zrotation
						JOINT Neck_virtual
						{
							OFFSET 0.000000 0.000000 0.000000
							CHANNELS 3 Xrotation Yrotation Zrotation
							JOINT Neck
							{
								OFFSET -0.003700 21.199493 -0.826900
								CHANNELS 3 Xrotation Yrotation Zrotation
								JOINT Head
								{
									OFFSET 0.000000 20.442200 4.834800
									CHANNELS 3 Xrotation Yrotation Zrotation
									JOINT HeadTop_End
									{
										OFFSET 0.000000 34.668396 4.968400
										CHANNELS 3 Xrotation Yrotation Zrotation
										End Site
										{
											OFFSET 0 0 0
										}
									}
								}
							}
						}
						JOINT LeftShoulder_virtual
						{
							OFFSET 0.000000 0.000000 0.000000
							CHANNELS 3 Xrotation Yrotation Zrotation
							JOINT LeftShoulder
							{
								OFFSET 3.288150 8.794197 -1.372250
								CHANNELS 3 Xrotation Yrotation Zrotation
								JOINT LeftShoulder_split
								{
									OFFSET 3.288150 8.794197 -1.372250
									CHANNELS 3 Xrotation Yrotation Zrotation
									JOINT LeftArm
									{
										OFFSET 11.953299 -2.279007 -0.146200
										CHANNELS 3 Xrotation Yrotation Zrotation
										JOINT LeftForeArm
										{
											OFFSET 18.448900 0.000000 0.000000
											CHANNELS 3 Xrotation Yrotation Zrotation
											JOINT LeftHand
											{
												OFFSET 29.527798 0.000000 0.000000
												CHANNELS 3 Xrotation Yrotation Zrotation
												End Site
												{
													OFFSET 0 0 0
												}
											}
										}
									}
								}
							}
						}
						JOINT RightShoulder_virtual
						{
							OFFSET 0.000000 0.000000 0.000000
							CHANNELS 3 Xrotation Yrotation Zrotation
							JOINT RightShoulder
							{
								OFFSET -3.249400 8.794197 -1.372250
								CHANNELS 3 Xrotation Yrotation Zrotation
								JOINT RightShoulder_split
								{
									OFFSET -3.249400 8.794197 -1.372250
									CHANNELS 3 Xrotation Yrotation Zrotation
									JOINT RightArm
									{
										OFFSET -11.953299 -2.279007 -0.146200
										CHANNELS 3 Xrotation Yrotation Zrotation
										JOINT RightForeArm
										{
											OFFSET -18.448900 0.000000 0.000000
											CHANNELS 3 Xrotation Yrotation Zrotation
											JOINT RightHand
											{
												OFFSET -29.527802 0.000000 0.000000
												CHANNELS 3 Xrotation Yrotation Zrotation
												End Site
												{
													OFFSET 0 0 0
												}
											}
										}
									}
								}
							}
						}
					}
				}
			}
		}
	}
}
MOTION
Frames: 7
Frame Time: 0.03333333
0.183344 78.236160 -7.348625 0.000000 0.000000 0.000000 -14.388307 4.629501 1.639805 -35.867024 -3.508082 12.605596 69.301312 0.777225 1.229917 -22.085840 -2.754546 -12.069785 -3.046071 -0.231587 -0.401092 0.000000 0.000000 0.000000 -13.411520 2.437339 1.393224 -32.011311 -1.188519 -17.811615 71.450015 1.769755 -1.459866 -29.176874 -4.391480 13.198798 0.349225 1.030434 -0.322668 0.000000 0.000000 0.000000 -12.945295 3.557762 1.469726 25.177898 -3.291694 -0.086699 16.645113 -0.238602 0.478822 -0.084921 1.112095 0.286054 0.000000 0.000000 0.000000 17.750323 -0.266722 0.665197 8.458769 -4.091053 1.217278 -12.357181 -2.259298 -3.991520 0.000000 0.000000 0.000000 18.324100 -0.436915 0.325571 0.701081 -19.308441 -4.198031 -1.437628 -1.581910 -4.524338 -29.176656 -0.046168 -59.970017 -135.364350 -77.032472 -133.331303 0.000000 0.000000 0.000000 18.059442 -0.037694 0.796289 7.383216 3.014758 21.497337 2.452818 3.420546 3.963969 -31.005924 9.972746 42.490351 -103.677593 63.127094 94.597362 0.000000 0.000000 0.000000 
0.050637 78.694672 -7.004025 0.000000 0.000000 0.000000 -15.221681 4.225580 1.370296 -34.090871 -3.668035 12.811857 68.450291 0.901443 1.331507 -22.193301 -2.593036 -11.902151 -3.202572 -0.212221 -0.347806 0.000000 0.000000 0.000000 -14.313188 2.507788 1.177023 -30.401356 -1.132329 -17.269889 70.910191 1.687067 -1.492808 -29.297031 -4.501455 13.150602 0.302468 1.014031 -0.221235 0.000000 0.000000 0.000000 -14.218463 3.152431 1.330981 24.810317 -3.039580 -0.205574 16.116463 -0.175334 0.573894 -0.335475 0.720631 0.299690 0.000000 0.000000 0.000000 16.997303 -0.204087 0.670124 8.165396 -3.930613 0.600538 -11.797050 -1.859421 -3.558397 0.000000 0.000000 0.000000 18.076707 -0.512751 0.426608 0.545085 -19.546535 -5.334796 -0.749874 -1.955967 -3.985043 -26.917818 -1.629600 -60.272526 -130.951105 -79.893979 -128.874509 0.000000 0.000000 0.000000 17.529687 0.029549 0.938900 7.363338 3.330255 21.802244 2.081257 2.678257 4.097136 -28.202280 8.287372 40.886352 -102.645060 63.003646 93.150318 0.000000 0.000000 0.000000 
-0.133751 79.337975 -6.716721 0.000000 0.000000 0.000000 -16.140936 3.802721 1.095270 -32.153706 -3.945463 13.080415 67.211220 0.965867 1.468538 -22.082797 -2.501790 -11.834512 -3.283209 -0.202688 -0.290314 0.000000 0.000000 0.000000 -15.334237 2.553095 0.978523 -28.474005 -1.334756 -16.707843 69.954743 1.590779 -1.503626 -29.351037 -4.637235 13.083238 0.206933 1.010241 -0.111665 0.000000 0.000000 0.000000 -15.563197 2.988424 1.105233 24.173305 -2.733951 -0.240100 15.744506 -0.152472 0.712773 -0.328457 0.759981 0.367013 0.000000 0.000000 0.000000 16.418419 -0.200565 0.698079 7.751425 -3.658472 -0.121201 -11.450968 -1.353771 -3.043403 0.000000 0.000000 0.000000 17.904030 -0.601579 0.622505 0.415861 -20.214297 -6.434856 -0.713763 -2.216624 -3.700988 -24.186603 -4.058205 -59.648930 -122.005142 -82.207037 -119.373880 0.000000 0.000000 0.000000 17.057284 -0.011981 1.128598 7.169198 3.491378 22.192507 1.283965 2.600592 4.014519 -24.505471 7.850763 39.119505 -104.017408 64.150325 94.160455 0.000000 0.000000 0.000000 
-0.343689 80.075584 -6.458576 0.000000 0.000000 0.000000 -17.018494 3.409310 0.860923 -30.227559 -4.287264 13.372934 65.718974 0.981569 1.598221 -21.776368 -2.475209 -11.840115 -3.280998 -0.208327 -0.211382 0.000000 0.000000 0.000000 -16.375203 2.510616 0.832600 -26.521688 -1.762432 -16.202028 68.687429 1.499802 -1.487778 -29.268385 -4.781243 13.020242 0.058643 1.019215 -0.042236 0.000000 0.000000 0.000000 -16.779324 3.115805 0.865140 23.466699 -2.438652 -0.200837 15.460521 -0.178043 0.844472 0.097998 1.180358 0.611165 0.000000 0.000000 0.000000 15.990431 -0.244748 0.734185 7.017849 -3.278958 -0.830446 -11.464583 -0.862335 -2.433841 0.000000 0.000000 0.000000 17.645112 -0.692791 0.869028 0.370212 -20.992581 -7.231727 -1.061791 -2.385573 -3.814286 -21.907898 -6.327665 -58.304865 -114.423823 -83.580820 -110.771106 0.000000 0.000000 0.000000 16.598270 -0.148419 1.313933 6.888355 3.362306 22.604740 0.213727 2.806490 3.934090 -20.376186 8.116565 37.984871 -106.968521 66.342474 96.700630 0.000000 0.000000 0.000000 
-0.526907 80.820305 -6.234024 0.000000 0.000000 0.000000 -17.763153 3.093951 0.703215 -28.516275 -4.637400 13.628982 64.185774 0.994598 1.683030 -21.343723 -2.458113 -11.861387 -3.202653 -0.216553 -0.136389 0.000000 0.000000 0.000000 -17.290216 2.409475 0.734464 -24.734799 -2.328510 -15.783541 67.251368 1.426391 -1.442904 -29.104023 -4.931628 12.956549 -0.084759 1.037620 -0.038823 0.000000 0.000000 0.000000 -17.794557 3.420650 0.687026 22.815823 -2.204131 -0.106573 15.154235 -0.257042 0.924684 0.699339 1.577042 0.786160 0.000000 0.000000 0.000000 15.594182 -0.330259 0.777570 5.892824 -2.781232 -1.387255 -11.921492 -0.534052 -1.749243 0.000000 0.000000 0.000000 17.235883 -0.777484 1.079906 0.403394 -21.600794 -7.774787 -1.799556 -2.361113 -4.477639 -20.094094 -7.746837 -56.932629 -115.121650 -84.546479 -110.197726 0.000000 0.000000 0.000000 16.096772 -0.342147 1.425413 6.594928 2.954796 23.032129 -0.650272 3.224357 3.763278 -16.381652 8.409230 37.803260 -110.851600 69.226645 100.026146 0.000000 0.000000 0.000000 
-0.649729 81.494667 -5.996300 0.000000 0.000000 0.000000 -18.331927 2.873576 0.619750 -27.141543 -4.944249 13.804722 62.826798 1.030880 1.715296 -20.866306 -2.389165 -11.885689 -3.096863 -0.219623 -0.079476 0.000000 0.000000 0.000000 -18.017416 2.346630 0.686616 -23.201010 -2.938277 -15.457372 65.803313 1.365678 -1.371101 -28.952977 -5.065299 12.842794 -0.167758 1.064210 -0.108882 0.000000 0.000000 0.000000 -18.529883 3.782200 0.620885 22.302673 -2.053638 -0.010895 14.735703 -0.367065 0.929136 1.080310 2.104701 0.757604 0.000000 0.000000 0.000000 15.152729 -0.412266 0.778174 4.492595 -2.188451 -1.718216 -12.705449 -0.287305 -1.061079 0.000000 0.000000 0.000000 16.631137 -0.848851 1.187938 0.451965 -21.849215 -8.233719 -2.584543 -2.306604 -5.234622 -18.130556 -8.114771 -55.969852 -123.372942 -85.801383 -117.227944 0.000000 0.000000 0.000000 15.501060 -0.535794 1.451967 6.373515 2.297865 23.404622 -1.140730 3.415598 3.331536 -13.325277 8.427688 38.742216 -114.906267 72.535161 103.405553 0.000000 0.000000 0.000000 
-0.738750 82.076698 -5.735771 0.000000 0.000000 0.000000 -18.696132 2.733054 0.587917 -26.141832 -5.197142 13.883374 61.749500 1.105181 1.707578 -20.408728 -2.223206 -11.930299 -2.992651 -0.209427 -0.064598 0.000000 0.000000 0.000000 -18.535358 2.377344 0.674317 -21.947377 -3.505899 -15.216772 64.464125 1.307575 -1.267643 -28.874461 -5.175196 12.661420 -0.193947 1.090555 -0.220822 0.000000 0.000000 0.000000 -19.003792 4.141349 0.701347 21.963894 -1.977175 0.050551 14.156648 -0.455521 0.858938 1.212812 2.255677 0.761401 0.000000 0.000000 0.000000 14.578602 -0.456719 0.744849 3.032804 -1.540421 -1.831745 -13.664227 -0.059408 -0.472427 0.000000 0.000000 0.000000 15.889139 -0.895870 1.196021 0.486770 -21.568129 -8.691478 -3.159333 -2.187403 -5.713946 -15.783124 -7.842826 -55.498787 -136.839452 -88.096586 -129.774468 0.000000 0.000000 0.000000 14.802135 -0.659710 1.413600 6.230854 1.520180 23.635837 -1.472949 3.384714 2.945490 -11.363408 8.228596 40.034850 -118.571551 76.091914 106.386685 0.000000 0.000000 0.000000 
